# Blender 4.1.1
# www.blender.org
mtllib green_platform.mtl
o Untitled
v -2.000000 0.000000 0.600000
v -2.000000 -0.000000 -1.200000
v -2.000000 0.100000 0.600000
v -2.000000 0.100000 -1.200000
v -1.900000 0.100000 0.600000
v -1.900000 0.100000 0.500000
v -1.900000 0.100000 -1.100000
v -1.900000 0.100000 -1.200000
v -1.900000 0.200000 0.600000
v -1.900000 0.200000 0.500000
v -1.900000 0.200000 -1.100000
v -1.900000 0.200000 -1.200000
v -1.800000 0.200000 0.600000
v -1.800000 0.200000 0.500000
v -1.800000 0.200000 -1.100000
v -1.800000 0.200000 -1.200000
v -1.800000 0.300000 0.600000
v -1.800000 0.300000 0.500000
v -1.800000 0.300000 -1.100000
v -1.800000 0.300000 -1.200000
v -1.700000 0.300000 0.600000
v -1.700000 0.300000 0.500000
v -1.700000 0.300000 -1.100000
v -1.700000 0.300000 -1.200000
v -1.700000 0.400000 0.600000
v -1.700000 0.400000 -1.200000
v -1.500000 0.100000 0.500000
v -1.500000 0.100000 -0.100000
v -1.500000 0.100000 -0.200000
v -1.500000 0.100000 -1.100000
v -1.500000 0.200000 0.500000
v -1.500000 0.300000 0.500000
v -1.500000 0.300000 -1.100000
v 1.600000 0.100000 0.500000
v 1.600000 0.100000 -1.100000
v 1.600000 0.200000 0.500000
v 1.600000 0.200000 -1.100000
v -1.700000 0.100000 0.500000
v -1.700000 0.100000 -0.100000
v -1.700000 0.100000 -0.200000
v -1.700000 0.100000 -1.100000
v -1.700000 0.200000 0.500000
v -1.700000 0.200000 -1.100000
v -1.700000 0.300000 0.500000
v -1.700000 0.300000 -1.100000
v 0.800000 0.100000 0.500000
v 0.800000 0.100000 -0.600000
v 0.800000 0.100000 -0.700000
v 0.800000 0.100000 -1.000000
v 0.800000 0.200000 0.500000
v 0.800000 0.200000 -1.000000
v 1.500000 0.100000 -1.000000
v 1.500000 0.100000 -1.100000
v 1.500000 0.200000 -1.000000
v 1.500000 0.200000 -1.100000
v 1.700000 0.000000 0.600000
v 1.700000 -0.000000 -1.200000
v 1.700000 0.100000 0.600000
v 1.700000 0.100000 0.500000
v 1.700000 0.100000 -1.100000
v 1.700000 0.100000 -1.200000
v 1.800000 0.100000 0.600000
v 1.800000 0.100000 0.500000
v 1.800000 0.100000 -1.100000
v 1.800000 0.100000 -1.200000
v 1.800000 0.200000 0.600000
v 1.800000 0.200000 0.500000
v 1.800000 0.200000 -1.100000
v 1.800000 0.200000 -1.200000
v 1.900000 0.200000 0.600000
v 1.900000 0.200000 0.500000
v 1.900000 0.200000 -1.100000
v 1.900000 0.200000 -1.200000
v 1.900000 0.300000 0.600000
v 1.900000 0.300000 0.500000
v 1.900000 0.300000 -1.100000
v 1.900000 0.300000 -1.200000
v 2.000000 0.300000 0.600000
v 2.000000 0.300000 -1.200000
v 2.000000 0.400000 0.600000
v 2.000000 0.400000 -1.200000
v -2.000000 0.000000 0.600000
v -2.000000 0.100000 0.600000
v -1.900000 0.100000 0.600000
v -1.900000 0.200000 0.600000
v -1.800000 0.200000 0.600000
v -1.800000 0.300000 0.600000
v -1.700000 0.100000 0.600000
v -1.700000 0.200000 0.600000
v -1.700000 0.300000 0.600000
v -1.700000 0.400000 0.600000
v -1.600000 0.100000 0.600000
v -1.600000 0.200000 0.600000
v -1.600000 0.300000 0.600000
v -1.100000 0.100000 0.600000
v -1.100000 0.200000 0.600000
v -0.700000 0.200000 0.600000
v -0.700000 0.300000 0.600000
v -0.500000 0.100000 0.600000
v -0.500000 0.200000 0.600000
v -0.400000 0.200000 0.600000
v -0.400000 0.300000 0.600000
v -0.200000 0.100000 0.600000
v -0.200000 0.200000 0.600000
v 0.800000 0.100000 0.600000
v 0.800000 0.200000 0.600000
v 0.900000 0.100000 0.600000
v 0.900000 0.200000 0.600000
v 1.200000 0.200000 0.600000
v 1.200000 0.300000 0.600000
v 1.300000 0.200000 0.600000
v 1.300000 0.300000 0.600000
v 1.600000 0.100000 0.600000
v 1.600000 0.200000 0.600000
v 1.700000 0.000000 0.600000
v 1.700000 0.100000 0.600000
v 1.700000 0.200000 0.600000
v 1.700000 0.300000 0.600000
v 1.800000 0.100000 0.600000
v 1.800000 0.200000 0.600000
v 1.900000 0.200000 0.600000
v 1.900000 0.300000 0.600000
v 2.000000 0.300000 0.600000
v 2.000000 0.400000 0.600000
v 0.800000 0.100000 -1.000000
v 0.800000 0.200000 -1.000000
v 1.500000 0.100000 -1.000000
v 1.500000 0.200000 -1.000000
v -1.700000 0.100000 -1.100000
v -1.700000 0.200000 -1.100000
v -1.700000 0.300000 -1.100000
v -1.600000 0.200000 -1.100000
v -1.600000 0.300000 -1.100000
v -1.500000 0.100000 -1.100000
v -1.500000 0.300000 -1.100000
v 1.500000 0.100000 -1.100000
v 1.500000 0.200000 -1.100000
v 1.600000 0.100000 -1.100000
v 1.600000 0.200000 -1.100000
v -1.700000 0.100000 0.500000
v -1.700000 0.200000 0.500000
v -1.700000 0.300000 0.500000
v -1.600000 0.100000 0.500000
v -1.600000 0.200000 0.500000
v -1.600000 0.300000 0.500000
v -1.500000 0.100000 0.500000
v -1.500000 0.200000 0.500000
v -1.500000 0.300000 0.500000
v 0.800000 0.100000 0.500000
v 0.800000 0.200000 0.500000
v 0.900000 0.100000 0.500000
v 0.900000 0.200000 0.500000
v 1.600000 0.100000 0.500000
v 1.600000 0.200000 0.500000
v -2.000000 -0.000000 -1.200000
v -2.000000 0.100000 -1.200000
v -1.900000 0.100000 -1.200000
v -1.900000 0.200000 -1.200000
v -1.800000 0.200000 -1.200000
v -1.800000 0.300000 -1.200000
v -1.700000 0.100000 -1.200000
v -1.700000 0.200000 -1.200000
v -1.700000 0.300000 -1.200000
v -1.700000 0.400000 -1.200000
v -1.600000 0.200000 -1.200000
v -1.600000 0.300000 -1.200000
v -1.500000 0.200000 -1.200000
v -1.500000 0.300000 -1.200000
v -1.300000 0.200000 -1.200000
v -1.300000 0.300000 -1.200000
v -0.500000 0.100000 -1.200000
v -0.500000 0.200000 -1.200000
v -0.100000 0.100000 -1.200000
v -0.100000 0.200000 -1.200000
v 0.500000 0.200000 -1.200000
v 0.500000 0.300000 -1.200000
v 0.800000 0.200000 -1.200000
v 0.800000 0.300000 -1.200000
v 1.600000 0.100000 -1.200000
v 1.600000 0.200000 -1.200000
v 1.700000 -0.000000 -1.200000
v 1.700000 0.100000 -1.200000
v 1.700000 0.200000 -1.200000
v 1.700000 0.300000 -1.200000
v 1.800000 0.100000 -1.200000
v 1.800000 0.200000 -1.200000
v 1.900000 0.200000 -1.200000
v 1.900000 0.300000 -1.200000
v 2.000000 0.300000 -1.200000
v 2.000000 0.400000 -1.200000
v -2.000000 0.000000 0.600000
v 1.700000 0.000000 0.600000
v -1.900000 0.000000 0.500000
v 0.200000 0.000000 0.500000
v 0.300000 0.000000 0.500000
v 1.600000 0.000000 0.500000
v 0.200000 0.000000 0.400000
v 0.300000 0.000000 0.400000
v -0.500000 0.000000 0.200000
v -0.400000 0.000000 0.200000
v 0.900000 0.000000 0.200000
v 1.000000 0.000000 0.200000
v -0.500000 0.000000 0.100000
v -0.400000 0.000000 0.100000
v 0.900000 0.000000 0.100000
v 1.000000 0.000000 0.100000
v -1.700000 -0.000000 -0.100000
v -1.300000 -0.000000 -0.100000
v 0.200000 -0.000000 -0.100000
v 0.300000 -0.000000 -0.100000
v 1.000000 -0.000000 -0.100000
v 1.100000 -0.000000 -0.100000
v -1.700000 -0.000000 -0.200000
v -1.300000 -0.000000 -0.200000
v -0.300000 -0.000000 -0.200000
v 0.200000 -0.000000 -0.200000
v 1.000000 -0.000000 -0.200000
v 1.100000 -0.000000 -0.200000
v 1.300000 -0.000000 -0.200000
v 1.400000 -0.000000 -0.200000
v -0.100000 -0.000000 -0.300000
v 0.200000 -0.000000 -0.300000
v 1.300000 -0.000000 -0.300000
v 1.400000 -0.000000 -0.300000
v -1.500000 -0.000000 -0.500000
v -1.300000 -0.000000 -0.500000
v 0.200000 -0.000000 -0.500000
v 0.300000 -0.000000 -0.500000
v -0.300000 -0.000000 -0.600000
v -0.100000 -0.000000 -0.600000
v 0.700000 -0.000000 -0.600000
v 1.100000 -0.000000 -0.600000
v -1.500000 -0.000000 -0.700000
v -1.300000 -0.000000 -0.700000
v 0.700000 -0.000000 -0.700000
v 1.100000 -0.000000 -0.700000
v -1.900000 -0.000000 -1.100000
v 1.600000 -0.000000 -1.100000
v -2.000000 -0.000000 -1.200000
v 1.700000 -0.000000 -1.200000
v 1.700000 0.100000 0.600000
v 1.800000 0.100000 0.600000
v 1.700000 0.100000 0.500000
v 1.800000 0.100000 0.500000
v 1.700000 0.100000 -1.100000
v 1.800000 0.100000 -1.100000
v 1.700000 0.100000 -1.200000
v 1.800000 0.100000 -1.200000
v 1.800000 0.200000 0.600000
v 1.900000 0.200000 0.600000
v 0.800000 0.200000 0.500000
v 0.900000 0.200000 0.500000
v 1.600000 0.200000 0.500000
v 1.800000 0.200000 0.500000
v 1.900000 0.200000 0.500000
v 0.800000 0.200000 -1.000000
v 1.500000 0.200000 -1.000000
v 1.500000 0.200000 -1.100000
v 1.600000 0.200000 -1.100000
v 1.800000 0.200000 -1.100000
v 1.900000 0.200000 -1.100000
v 1.800000 0.200000 -1.200000
v 1.900000 0.200000 -1.200000
v 1.900000 0.300000 0.600000
v 2.000000 0.300000 0.600000
v -1.700000 0.300000 0.500000
v -1.600000 0.300000 0.500000
v -1.500000 0.300000 0.500000
v 1.900000 0.300000 0.500000
v -1.700000 0.300000 -1.100000
v -1.600000 0.300000 -1.100000
v -1.500000 0.300000 -1.100000
v 1.900000 0.300000 -1.100000
v 1.900000 0.300000 -1.200000
v 2.000000 0.300000 -1.200000
v -2.000000 0.100000 0.600000
v -1.900000 0.100000 0.600000
v -1.900000 0.100000 0.500000
v -1.700000 0.100000 0.500000
v -1.600000 0.100000 0.500000
v -1.500000 0.100000 0.500000
v 0.800000 0.100000 0.500000
v 0.900000 0.100000 0.500000
v 1.600000 0.100000 0.500000
v 0.900000 0.100000 0.200000
v 1.000000 0.100000 0.200000
v 0.900000 0.100000 0.100000
v 1.000000 0.100000 0.100000
v -1.700000 0.100000 -0.100000
v -1.500000 0.100000 -0.100000
v 1.000000 0.100000 -0.100000
v 1.100000 0.100000 -0.100000
v -1.700000 0.100000 -0.200000
v -1.500000 0.100000 -0.200000
v 1.000000 0.100000 -0.200000
v 1.100000 0.100000 -0.200000
v 1.300000 0.100000 -0.200000
v 1.400000 0.100000 -0.200000
v 1.300000 0.100000 -0.300000
v 1.400000 0.100000 -0.300000
v 0.800000 0.100000 -0.600000
v 1.100000 0.100000 -0.600000
v 0.800000 0.100000 -0.700000
v 1.100000 0.100000 -0.700000
v 0.800000 0.100000 -1.000000
v 1.500000 0.100000 -1.000000
v -1.900000 0.100000 -1.100000
v -1.700000 0.100000 -1.100000
v -1.500000 0.100000 -1.100000
v 1.500000 0.100000 -1.100000
v 1.600000 0.100000 -1.100000
v -2.000000 0.100000 -1.200000
v -1.900000 0.100000 -1.200000
v -1.900000 0.200000 0.600000
v -1.800000 0.200000 0.600000
v -1.900000 0.200000 0.500000
v -1.800000 0.200000 0.500000
v -1.900000 0.200000 -1.100000
v -1.800000 0.200000 -1.100000
v -1.900000 0.200000 -1.200000
v -1.800000 0.200000 -1.200000
v -1.800000 0.300000 0.600000
v -1.700000 0.300000 0.600000
v -1.800000 0.300000 0.500000
v -1.700000 0.300000 0.500000
v -1.800000 0.300000 -1.100000
v -1.700000 0.300000 -1.100000
v -1.800000 0.300000 -1.200000
v -1.700000 0.300000 -1.200000
v -1.700000 0.400000 0.600000
v 2.000000 0.400000 0.600000
v -1.600000 0.400000 0.500000
v 1.900000 0.400000 0.500000
v -1.300000 0.400000 0.400000
v -1.000000 0.400000 0.400000
v -1.300000 0.400000 0.300000
v -1.000000 0.400000 0.300000
v 1.000000 0.400000 0.200000
v 1.400000 0.400000 0.200000
v 1.000000 0.400000 0.100000
v 1.400000 0.400000 0.100000
v -1.100000 0.400000 -0.200000
v -0.600000 0.400000 -0.200000
v -1.100000 0.400000 -0.300000
v -0.900000 0.400000 -0.300000
v -0.600000 0.400000 -0.300000
v -0.400000 0.400000 -0.300000
v 0.300000 0.400000 -0.300000
v 0.700000 0.400000 -0.300000
v -0.900000 0.400000 -0.400000
v -0.400000 0.400000 -0.400000
v 0.700000 0.400000 -0.400000
v 0.900000 0.400000 -0.400000
v 0.300000 0.400000 -0.500000
v 0.900000 0.400000 -0.500000
v 1.500000 0.400000 -0.800000
v 1.800000 0.400000 -0.800000
v -0.800000 0.400000 -1.000000
v 0.200000 0.400000 -1.000000
v 1.500000 0.400000 -1.000000
v 1.800000 0.400000 -1.000000
v -1.600000 0.400000 -1.100000
v -0.800000 0.400000 -1.100000
v 0.200000 0.400000 -1.100000
v 1.900000 0.400000 -1.100000
v -1.700000 0.400000 -1.200000
v 2.000000 0.400000 -1.200000
vn -1.0000 -0.0000 -0.0000
vn 1.0000 -0.0000 -0.0000
vn -0.0000 -0.0000 1.0000
vn -0.0000 -0.0000 -1.0000
vn -0.0000 -1.0000 -0.0000
vn -0.0000 1.0000 -0.0000
vt 0.994141 0.500000
vt 0.888672 0.500000
vt 0.904297 0.500000
s 0
usemtl green
f 3/1/1 2/1/1 1/1/1
f 4/1/1 2/1/1 3/1/1
f 9/1/1 6/1/1 5/1/1
f 10/2/1 7/2/1 6/2/1
f 10/1/1 6/1/1 9/1/1
f 11/1/1 8/1/1 7/1/1
f 11/2/1 7/2/1 10/2/1
f 12/1/1 8/1/1 11/1/1
f 17/1/1 14/1/1 13/1/1
f 18/2/1 15/2/1 14/2/1
f 18/1/1 14/1/1 17/1/1
f 19/1/1 16/1/1 15/1/1
f 19/2/1 15/2/1 18/2/1
f 20/1/1 16/1/1 19/1/1
f 25/1/1 22/1/1 21/1/1
f 25/1/1 24/1/1 23/1/1
f 25/1/1 23/1/1 22/1/1
f 26/1/1 24/1/1 25/1/1
f 31/2/1 28/2/1 27/2/1
f 31/2/1 30/2/1 29/2/1
f 31/2/1 29/2/1 28/2/1
f 32/2/1 30/2/1 31/2/1
f 33/2/1 30/2/1 32/2/1
f 36/2/1 35/2/1 34/2/1
f 37/2/1 35/2/1 36/2/1
f 38/2/2 39/2/2 42/2/2
f 40/2/2 41/2/2 42/2/2
f 39/2/2 40/2/2 42/2/2
f 42/2/2 41/2/2 43/2/2
f 42/2/2 43/2/2 44/2/2
f 44/2/2 43/2/2 45/2/2
f 46/2/2 47/2/2 50/2/2
f 48/2/2 49/2/2 50/2/2
f 47/2/2 48/2/2 50/2/2
f 50/2/2 49/2/2 51/2/2
f 52/2/2 53/2/2 54/2/2
f 54/2/2 53/2/2 55/2/2
f 56/1/2 57/1/2 58/1/2
f 58/1/2 57/1/2 59/1/2
f 59/1/2 57/1/2 60/1/2
f 60/1/2 57/1/2 61/1/2
f 62/1/2 63/1/2 66/1/2
f 63/2/2 64/2/2 67/2/2
f 66/1/2 63/1/2 67/1/2
f 64/1/2 65/1/2 68/1/2
f 67/2/2 64/2/2 68/2/2
f 68/1/2 65/1/2 69/1/2
f 70/1/2 71/1/2 74/1/2
f 71/2/2 72/2/2 75/2/2
f 74/1/2 71/1/2 75/1/2
f 72/1/2 73/1/2 76/1/2
f 75/2/2 72/2/2 76/2/2
f 76/1/2 73/1/2 77/1/2
f 78/1/2 79/1/2 80/1/2
f 80/1/2 79/1/2 81/1/2
f 84/1/3 83/1/3 82/1/3
f 86/1/3 85/1/3 84/1/3
f 88/1/3 84/1/3 82/1/3
f 88/1/3 87/1/3 86/1/3
f 88/1/3 86/1/3 84/1/3
f 89/1/3 87/1/3 88/1/3
f 90/1/3 87/1/3 89/1/3
f 92/1/3 88/1/3 82/1/3
f 92/2/3 89/2/3 88/2/3
f 93/1/3 91/1/3 90/1/3
f 93/2/3 89/2/3 92/2/3
f 93/1/3 90/1/3 89/1/3
f 94/1/3 91/1/3 93/1/3
f 95/1/3 92/1/3 82/1/3
f 95/3/3 93/3/3 92/3/3
f 96/2/3 94/2/3 93/2/3
f 96/3/3 93/3/3 95/3/3
f 97/2/3 96/2/3 95/2/3
f 97/2/3 94/2/3 96/2/3
f 98/1/3 91/1/3 94/1/3
f 98/2/3 94/2/3 97/2/3
f 99/2/3 97/2/3 95/2/3
f 99/1/3 95/1/3 82/1/3
f 100/2/3 97/2/3 99/2/3
f 102/1/3 91/1/3 98/1/3
f 103/1/3 99/1/3 82/1/3
f 104/2/3 102/2/3 101/2/3
f 105/1/3 103/1/3 82/1/3
f 105/2/3 104/2/3 103/2/3
f 106/2/3 102/2/3 104/2/3
f 106/2/3 104/2/3 105/2/3
f 107/1/3 105/1/3 82/1/3
f 108/2/3 102/2/3 106/2/3
f 109/2/3 108/2/3 107/2/3
f 109/2/3 102/2/3 108/2/3
f 110/1/3 91/1/3 102/1/3
f 110/2/3 102/2/3 109/2/3
f 111/2/3 109/2/3 107/2/3
f 112/1/3 91/1/3 110/1/3
f 113/2/3 111/2/3 107/2/3
f 113/1/3 107/1/3 82/1/3
f 113/2/3 112/2/3 111/2/3
f 114/2/3 112/2/3 113/2/3
f 115/1/3 113/1/3 82/1/3
f 115/1/3 114/1/3 113/1/3
f 116/1/3 114/1/3 115/1/3
f 117/2/3 112/2/3 114/2/3
f 117/1/3 114/1/3 116/1/3
f 118/1/3 91/1/3 112/1/3
f 118/2/3 112/2/3 117/2/3
f 119/1/3 117/1/3 116/1/3
f 119/1/3 118/1/3 117/1/3
f 120/1/3 118/1/3 119/1/3
f 121/1/3 118/1/3 120/1/3
f 122/1/3 91/1/3 118/1/3
f 122/1/3 118/1/3 121/1/3
f 123/1/3 91/1/3 122/1/3
f 124/1/3 91/1/3 123/1/3
f 127/2/3 126/2/3 125/2/3
f 128/2/3 126/2/3 127/2/3
f 132/2/3 130/2/3 129/2/3
f 132/1/3 131/1/3 130/1/3
f 133/1/3 131/1/3 132/1/3
f 134/2/3 132/2/3 129/2/3
f 134/2/3 133/2/3 132/2/3
f 135/2/3 133/2/3 134/2/3
f 138/2/3 137/2/3 136/2/3
f 139/2/3 137/2/3 138/2/3
f 140/2/4 141/2/4 143/2/4
f 141/1/4 142/1/4 144/1/4
f 143/2/4 141/2/4 144/2/4
f 144/1/4 142/1/4 145/1/4
f 143/3/4 144/3/4 146/3/4
f 144/2/4 145/2/4 147/2/4
f 146/3/4 144/3/4 147/3/4
f 147/2/4 145/2/4 148/2/4
f 149/3/4 150/3/4 151/3/4
f 151/3/4 150/3/4 152/3/4
f 151/2/4 152/2/4 153/2/4
f 153/2/4 152/2/4 154/2/4
f 155/1/4 156/1/4 157/1/4
f 157/1/4 158/1/4 159/1/4
f 155/1/4 157/1/4 161/1/4
f 159/1/4 160/1/4 161/1/4
f 157/1/4 159/1/4 161/1/4
f 161/1/4 160/1/4 162/1/4
f 162/1/4 160/1/4 163/1/4
f 161/2/4 162/2/4 165/2/4
f 163/1/4 164/1/4 165/1/4
f 162/1/4 163/1/4 165/1/4
f 165/1/4 164/1/4 166/1/4
f 161/2/4 165/2/4 167/2/4
f 166/1/4 164/1/4 168/1/4
f 161/2/4 167/2/4 169/2/4
f 168/1/4 164/1/4 170/1/4
f 155/1/4 161/1/4 171/1/4
f 161/2/4 169/2/4 171/2/4
f 169/2/4 170/2/4 171/2/4
f 171/2/4 170/2/4 172/2/4
f 155/1/4 171/1/4 173/1/4
f 172/2/4 170/2/4 174/2/4
f 173/2/4 174/2/4 175/2/4
f 174/2/4 170/2/4 175/2/4
f 170/1/4 164/1/4 176/1/4
f 175/2/4 170/2/4 176/2/4
f 173/2/4 175/2/4 177/2/4
f 176/1/4 164/1/4 178/1/4
f 173/2/4 177/2/4 179/2/4
f 155/1/4 173/1/4 179/1/4
f 177/2/4 178/2/4 179/2/4
f 179/2/4 178/2/4 180/2/4
f 155/1/4 179/1/4 181/1/4
f 179/1/4 180/1/4 181/1/4
f 181/1/4 180/1/4 182/1/4
f 180/2/4 178/2/4 183/2/4
f 182/1/4 180/1/4 183/1/4
f 178/1/4 164/1/4 184/1/4
f 183/2/4 178/2/4 184/2/4
f 182/1/4 183/1/4 185/1/4
f 183/1/4 184/1/4 185/1/4
f 185/1/4 184/1/4 186/1/4
f 186/1/4 184/1/4 187/1/4
f 184/1/4 164/1/4 188/1/4
f 187/1/4 184/1/4 188/1/4
f 188/1/4 164/1/4 189/1/4
f 189/1/4 164/1/4 190/1/4
f 193/1/5 192/1/5 191/1/5
f 194/1/5 192/1/5 193/1/5
f 195/1/5 192/1/5 194/1/5
f 196/1/5 192/1/5 195/1/5
f 197/2/5 194/2/5 193/2/5
f 198/2/5 196/2/5 195/2/5
f 199/2/5 197/2/5 193/2/5
f 199/2/5 198/2/5 197/2/5
f 200/2/5 198/2/5 199/2/5
f 201/2/5 196/2/5 198/2/5
f 201/2/5 198/2/5 200/2/5
f 202/2/5 196/2/5 201/2/5
f 203/2/5 199/2/5 193/2/5
f 204/2/5 201/2/5 200/2/5
f 205/2/5 201/2/5 204/2/5
f 206/2/5 196/2/5 202/2/5
f 207/2/5 205/2/5 204/2/5
f 207/2/5 204/2/5 203/2/5
f 207/2/5 206/2/5 205/2/5
f 207/2/5 203/2/5 193/2/5
f 208/2/5 206/2/5 207/2/5
f 209/2/5 206/2/5 208/2/5
f 210/2/5 206/2/5 209/2/5
f 211/2/5 196/2/5 206/2/5
f 211/2/5 206/2/5 210/2/5
f 212/2/5 196/2/5 211/2/5
f 213/2/5 207/2/5 193/2/5
f 213/3/5 208/3/5 207/3/5
f 214/2/5 209/2/5 208/2/5
f 214/3/5 208/3/5 213/3/5
f 215/2/5 209/2/5 214/2/5
f 216/3/5 210/3/5 209/3/5
f 216/2/5 209/2/5 215/2/5
f 217/2/5 211/2/5 210/2/5
f 218/2/5 196/2/5 212/2/5
f 219/2/5 196/2/5 218/2/5
f 220/2/5 196/2/5 219/2/5
f 221/3/5 216/3/5 215/3/5
f 222/3/5 210/3/5 216/3/5
f 222/3/5 216/3/5 221/3/5
f 223/2/5 218/2/5 217/2/5
f 223/2/5 219/2/5 218/2/5
f 224/2/5 196/2/5 220/2/5
f 225/2/5 215/2/5 214/2/5
f 225/2/5 214/2/5 213/2/5
f 226/2/5 215/2/5 225/2/5
f 227/3/5 210/3/5 222/3/5
f 227/2/5 222/2/5 221/2/5
f 228/2/5 217/2/5 210/2/5
f 228/3/5 210/3/5 227/3/5
f 228/2/5 223/2/5 217/2/5
f 228/2/5 224/2/5 223/2/5
f 229/3/5 221/3/5 215/3/5
f 229/2/5 215/2/5 226/2/5
f 230/2/5 227/2/5 221/2/5
f 230/3/5 221/3/5 229/3/5
f 230/2/5 228/2/5 227/2/5
f 231/2/5 224/2/5 228/2/5
f 231/2/5 228/2/5 230/2/5
f 232/2/5 224/2/5 231/2/5
f 233/2/5 225/2/5 213/2/5
f 234/2/5 229/2/5 226/2/5
f 234/2/5 230/2/5 229/2/5
f 234/2/5 231/2/5 230/2/5
f 235/2/5 231/2/5 234/2/5
f 236/2/5 224/2/5 232/2/5
f 237/1/5 193/1/5 191/1/5
f 237/2/5 233/2/5 213/2/5
f 237/2/5 236/2/5 235/2/5
f 237/2/5 235/2/5 234/2/5
f 237/2/5 213/2/5 193/2/5
f 237/2/5 234/2/5 233/2/5
f 238/2/5 224/2/5 236/2/5
f 238/2/5 236/2/5 237/2/5
f 238/1/5 192/1/5 196/1/5
f 238/2/5 196/2/5 224/2/5
f 239/1/5 237/1/5 191/1/5
f 239/1/5 238/1/5 237/1/5
f 240/1/5 192/1/5 238/1/5
f 240/1/5 238/1/5 239/1/5
f 243/1/5 242/1/5 241/1/5
f 244/1/5 242/1/5 243/1/5
f 245/2/5 244/2/5 243/2/5
f 246/2/5 244/2/5 245/2/5
f 247/1/5 246/1/5 245/1/5
f 248/1/5 246/1/5 247/1/5
f 254/1/5 250/1/5 249/1/5
f 255/1/5 250/1/5 254/1/5
f 256/2/5 253/2/5 252/2/5
f 256/2/5 252/2/5 251/2/5
f 257/2/5 253/2/5 256/2/5
f 258/2/5 253/2/5 257/2/5
f 259/2/5 253/2/5 258/2/5
f 260/2/5 255/2/5 254/2/5
f 261/2/5 255/2/5 260/2/5
f 262/1/5 261/1/5 260/1/5
f 263/1/5 261/1/5 262/1/5
f 269/1/5 265/1/5 264/1/5
f 270/1/5 267/1/5 266/1/5
f 271/2/5 268/2/5 267/2/5
f 271/1/5 267/1/5 270/1/5
f 272/2/5 268/2/5 271/2/5
f 273/1/5 265/1/5 269/1/5
f 274/1/5 265/1/5 273/1/5
f 275/1/5 265/1/5 274/1/5
f 276/1/6 277/1/6 278/1/6
f 282/2/6 283/2/6 285/2/6
f 283/2/6 284/2/6 285/2/6
f 285/2/6 284/2/6 286/2/6
f 282/2/6 285/2/6 287/2/6
f 285/3/6 286/3/6 287/3/6
f 286/2/6 284/2/6 288/2/6
f 287/3/6 286/3/6 288/3/6
f 279/2/6 280/2/6 289/2/6
f 280/2/6 281/2/6 289/2/6
f 289/2/6 281/2/6 290/2/6
f 288/2/6 284/2/6 291/2/6
f 287/2/6 288/2/6 291/2/6
f 291/2/6 284/2/6 292/2/6
f 289/3/6 290/3/6 293/3/6
f 293/3/6 290/3/6 294/3/6
f 287/2/6 291/2/6 295/2/6
f 291/3/6 292/3/6 295/3/6
f 292/2/6 284/2/6 296/2/6
f 295/3/6 292/3/6 296/3/6
f 296/2/6 284/2/6 297/2/6
f 297/2/6 284/2/6 298/2/6
f 295/2/6 296/2/6 299/2/6
f 296/2/6 297/2/6 299/2/6
f 297/3/6 298/3/6 299/3/6
f 298/2/6 284/2/6 300/2/6
f 299/3/6 298/3/6 300/3/6
f 287/2/6 295/2/6 301/2/6
f 282/2/6 287/2/6 301/2/6
f 299/2/6 300/2/6 301/2/6
f 295/2/6 299/2/6 301/2/6
f 301/2/6 300/2/6 302/2/6
f 301/3/6 302/3/6 303/3/6
f 302/2/6 300/2/6 304/2/6
f 303/3/6 302/3/6 304/3/6
f 303/2/6 304/2/6 305/2/6
f 300/2/6 284/2/6 306/2/6
f 305/2/6 304/2/6 306/2/6
f 304/2/6 300/2/6 306/2/6
f 276/1/6 278/1/6 307/1/6
f 293/2/6 294/2/6 308/2/6
f 308/2/6 294/2/6 309/2/6
f 306/2/6 284/2/6 310/2/6
f 310/2/6 284/2/6 311/2/6
f 276/1/6 307/1/6 312/1/6
f 312/1/6 307/1/6 313/1/6
f 314/1/6 315/1/6 316/1/6
f 316/1/6 315/1/6 317/1/6
f 316/2/6 317/2/6 318/2/6
f 318/2/6 317/2/6 319/2/6
f 318/1/6 319/1/6 320/1/6
f 320/1/6 319/1/6 321/1/6
f 322/1/6 323/1/6 324/1/6
f 324/1/6 323/1/6 325/1/6
f 324/2/6 325/2/6 326/2/6
f 326/2/6 325/2/6 327/2/6
f 326/1/6 327/1/6 328/1/6
f 328/1/6 327/1/6 329/1/6
f 330/1/6 331/1/6 332/1/6
f 332/1/6 331/1/6 333/1/6
f 332/2/6 333/2/6 334/2/6
f 334/2/6 333/2/6 335/2/6
f 332/2/6 334/2/6 336/2/6
f 335/2/6 333/2/6 337/2/6
f 336/2/6 337/2/6 338/2/6
f 337/2/6 333/2/6 338/2/6
f 338/2/6 333/2/6 339/2/6
f 336/2/6 338/2/6 340/2/6
f 339/2/6 333/2/6 341/2/6
f 336/2/6 340/2/6 342/2/6
f 340/2/6 341/2/6 342/2/6
f 342/2/6 341/2/6 343/2/6
f 336/2/6 342/2/6 344/2/6
f 343/2/6 341/2/6 346/2/6
f 346/2/6 341/2/6 347/2/6
f 347/2/6 341/2/6 348/2/6
f 348/2/6 341/2/6 349/2/6
f 344/2/6 345/2/6 350/2/6
f 347/2/6 348/2/6 351/2/6
f 349/2/6 341/2/6 352/2/6
f 352/2/6 341/2/6 353/2/6
f 351/2/6 348/2/6 354/2/6
f 350/2/6 351/2/6 354/2/6
f 353/2/6 341/2/6 355/2/6
f 341/2/6 333/2/6 356/2/6
f 355/2/6 341/2/6 356/2/6
f 354/2/6 355/2/6 356/2/6
f 356/2/6 333/2/6 357/2/6
f 350/2/6 354/2/6 358/2/6
f 354/2/6 356/2/6 358/2/6
f 358/2/6 356/2/6 359/2/6
f 356/3/6 357/3/6 360/3/6
f 359/2/6 356/2/6 360/2/6
f 357/2/6 333/2/6 361/2/6
f 360/3/6 357/3/6 361/3/6
f 330/1/6 332/1/6 362/1/6
f 332/2/6 336/2/6 362/2/6
f 344/2/6 350/2/6 362/2/6
f 350/2/6 358/2/6 362/2/6
f 336/2/6 344/2/6 362/2/6
f 358/3/6 359/3/6 363/3/6
f 362/2/6 358/2/6 363/2/6
f 360/2/6 361/2/6 364/2/6
f 363/3/6 359/3/6 364/3/6
f 359/2/6 360/2/6 364/2/6
f 361/2/6 333/2/6 365/2/6
f 364/2/6 361/2/6 365/2/6
f 333/1/6 331/1/6 365/1/6
f 363/1/6 364/1/6 366/1/6
f 330/1/6 362/1/6 366/1/6
f 364/1/6 365/1/6 366/1/6
f 362/1/6 363/1/6 366/1/6
f 365/1/6 331/1/6 367/1/6
f 366/1/6 365/1/6 367/1/6
usemtl black
f 100/3/3 98/3/3 97/3/3
f 101/3/3 100/3/3 99/3/3
f 101/3/3 98/3/3 100/3/3
f 102/3/3 98/3/3 101/3/3
f 103/3/3 101/3/3 99/3/3
f 104/3/3 101/3/3 103/3/3
f 107/3/3 106/3/3 105/3/3
f 108/3/3 106/3/3 107/3/3
f 111/3/3 110/3/3 109/3/3
f 112/3/3 110/3/3 111/3/3
f 165/2/4 166/2/4 167/2/4
f 167/2/4 166/2/4 168/2/4
f 167/3/4 168/3/4 169/3/4
f 169/3/4 168/3/4 170/3/4
f 171/3/4 172/3/4 173/3/4
f 173/3/4 172/3/4 174/3/4
f 175/3/4 176/3/4 177/3/4
f 177/3/4 176/3/4 178/3/4
f 197/3/5 195/3/5 194/3/5
f 198/3/5 195/3/5 197/3/5
f 203/3/5 200/3/5 199/3/5
f 204/3/5 200/3/5 203/3/5
f 205/3/5 202/3/5 201/3/5
f 206/3/5 202/3/5 205/3/5
f 217/3/5 212/3/5 211/3/5
f 218/3/5 212/3/5 217/3/5
f 223/3/5 220/3/5 219/3/5
f 224/3/5 220/3/5 223/3/5
f 233/3/5 226/3/5 225/3/5
f 234/3/5 226/3/5 233/3/5
f 235/3/5 232/3/5 231/3/5
f 236/3/5 232/3/5 235/3/5
f 334/3/6 335/3/6 336/3/6
f 336/3/6 335/3/6 337/3/6
f 338/3/6 339/3/6 340/3/6
f 340/3/6 339/3/6 341/3/6
f 342/3/6 343/3/6 344/3/6
f 344/3/6 343/3/6 345/3/6
f 345/3/6 343/3/6 346/3/6
f 345/3/6 346/3/6 350/3/6
f 346/3/6 347/3/6 350/3/6
f 350/3/6 347/3/6 351/3/6
f 348/3/6 349/3/6 352/3/6
f 352/3/6 353/3/6 354/3/6
f 348/3/6 352/3/6 354/3/6
f 354/3/6 353/3/6 355/3/6
