# Blender 4.1.1
# www.blender.org
mtllib blue_platform.mtl
o Untitled
v -2.000000 0.000000 0.600000
v -2.000000 -0.000000 -1.200000
v -2.000000 0.100000 0.600000
v -2.000000 0.100000 -1.200000
v -1.900000 0.100000 0.600000
v -1.900000 0.100000 0.500000
v -1.900000 0.100000 0.400000
v -1.900000 0.100000 0.200000
v -1.900000 0.100000 -1.100000
v -1.900000 0.100000 -1.200000
v -1.900000 0.200000 0.600000
v -1.900000 0.200000 0.500000
v -1.900000 0.200000 0.400000
v -1.900000 0.200000 0.200000
v -1.900000 0.200000 -1.100000
v -1.900000 0.200000 -1.200000
v -1.800000 0.200000 0.600000
v -1.800000 0.200000 0.500000
v -1.800000 0.200000 0.400000
v -1.800000 0.200000 0.200000
v -1.800000 0.200000 -0.100000
v -1.800000 0.200000 -0.200000
v -1.800000 0.200000 -0.400000
v -1.800000 0.200000 -0.500000
v -1.800000 0.200000 -1.100000
v -1.800000 0.200000 -1.200000
v -1.800000 0.300000 0.600000
v -1.800000 0.300000 0.500000
v -1.800000 0.300000 -0.100000
v -1.800000 0.300000 -0.200000
v -1.800000 0.300000 -0.400000
v -1.800000 0.300000 -0.500000
v -1.800000 0.300000 -1.100000
v -1.800000 0.300000 -1.200000
v -1.700000 0.300000 0.600000
v -1.700000 0.300000 0.500000
v -1.700000 0.300000 -0.100000
v -1.700000 0.300000 -0.200000
v -1.700000 0.300000 -0.400000
v -1.700000 0.300000 -0.500000
v -1.700000 0.300000 -1.100000
v -1.700000 0.300000 -1.200000
v -1.700000 0.400000 0.600000
v -1.700000 0.400000 -1.200000
v -1.500000 0.100000 0.500000
v -1.500000 0.100000 -1.100000
v -1.500000 0.300000 0.500000
v -1.500000 0.300000 -1.100000
v 1.600000 0.100000 0.500000
v 1.600000 0.100000 -1.100000
v 1.600000 0.200000 0.500000
v 1.600000 0.200000 -1.100000
v -1.700000 0.100000 0.500000
v -1.700000 0.100000 -1.100000
v -1.700000 0.200000 0.500000
v -1.700000 0.200000 -0.100000
v -1.700000 0.200000 -0.200000
v -1.700000 0.200000 -0.400000
v -1.700000 0.200000 -0.500000
v -1.700000 0.200000 -1.100000
v -1.700000 0.300000 0.500000
v -1.700000 0.300000 -0.100000
v -1.700000 0.300000 -0.200000
v -1.700000 0.300000 -0.400000
v -1.700000 0.300000 -0.500000
v -1.700000 0.300000 -1.100000
v 0.800000 0.100000 0.500000
v 0.800000 0.100000 -1.000000
v 0.800000 0.200000 0.500000
v 0.800000 0.200000 -1.000000
v 1.500000 0.100000 -1.000000
v 1.500000 0.100000 -1.100000
v 1.500000 0.200000 -1.000000
v 1.500000 0.200000 -1.100000
v 1.700000 0.000000 0.600000
v 1.700000 -0.000000 -1.200000
v 1.700000 0.100000 0.600000
v 1.700000 0.100000 0.500000
v 1.700000 0.100000 -1.100000
v 1.700000 0.100000 -1.200000
v 1.800000 0.100000 0.600000
v 1.800000 0.100000 0.500000
v 1.800000 0.100000 -1.100000
v 1.800000 0.100000 -1.200000
v 1.800000 0.200000 0.600000
v 1.800000 0.200000 0.500000
v 1.800000 0.200000 -1.100000
v 1.800000 0.200000 -1.200000
v 1.900000 0.200000 0.600000
v 1.900000 0.200000 0.500000
v 1.900000 0.200000 -1.100000
v 1.900000 0.200000 -1.200000
v 1.900000 0.300000 0.600000
v 1.900000 0.300000 0.500000
v 1.900000 0.300000 -1.100000
v 1.900000 0.300000 -1.200000
v 2.000000 0.300000 0.600000
v 2.000000 0.300000 -1.200000
v 2.000000 0.400000 0.600000
v 2.000000 0.400000 -1.200000
v -2.000000 0.000000 0.600000
v -2.000000 0.100000 0.600000
v -1.900000 0.100000 0.600000
v -1.900000 0.200000 0.600000
v -1.800000 0.200000 0.600000
v -1.800000 0.300000 0.600000
v -1.700000 0.100000 0.600000
v -1.700000 0.200000 0.600000
v -1.700000 0.300000 0.600000
v -1.700000 0.400000 0.600000
v -1.600000 0.200000 0.600000
v -1.600000 0.300000 0.600000
v -0.400000 0.100000 0.600000
v -0.400000 0.200000 0.600000
v -0.100000 0.100000 0.600000
v -0.100000 0.200000 0.600000
v 0.400000 0.200000 0.600000
v 0.400000 0.300000 0.600000
v 1.000000 0.200000 0.600000
v 1.000000 0.300000 0.600000
v 1.600000 0.100000 0.600000
v 1.600000 0.200000 0.600000
v 1.700000 0.000000 0.600000
v 1.700000 0.100000 0.600000
v 1.700000 0.200000 0.600000
v 1.700000 0.300000 0.600000
v 1.800000 0.100000 0.600000
v 1.800000 0.200000 0.600000
v 1.900000 0.200000 0.600000
v 1.900000 0.300000 0.600000
v 2.000000 0.300000 0.600000
v 2.000000 0.400000 0.600000
v 0.800000 0.100000 -1.000000
v 0.800000 0.200000 -1.000000
v 1.500000 0.100000 -1.000000
v 1.500000 0.200000 -1.000000
v -1.700000 0.100000 -1.100000
v -1.700000 0.200000 -1.100000
v -1.700000 0.300000 -1.100000
v -1.600000 0.200000 -1.100000
v -1.600000 0.300000 -1.100000
v -1.500000 0.100000 -1.100000
v -1.500000 0.300000 -1.100000
v 1.500000 0.100000 -1.100000
v 1.500000 0.200000 -1.100000
v 1.600000 0.100000 -1.100000
v 1.600000 0.200000 -1.100000
v -1.700000 0.100000 0.500000
v -1.700000 0.200000 0.500000
v -1.700000 0.300000 0.500000
v -1.600000 0.200000 0.500000
v -1.600000 0.300000 0.500000
v -1.500000 0.100000 0.500000
v -1.500000 0.300000 0.500000
v 0.800000 0.100000 0.500000
v 0.800000 0.200000 0.500000
v 1.600000 0.100000 0.500000
v 1.600000 0.200000 0.500000
v -2.000000 -0.000000 -1.200000
v -2.000000 0.100000 -1.200000
v -1.900000 0.100000 -1.200000
v -1.900000 0.200000 -1.200000
v -1.800000 0.200000 -1.200000
v -1.800000 0.300000 -1.200000
v -1.700000 0.100000 -1.200000
v -1.700000 0.200000 -1.200000
v -1.700000 0.300000 -1.200000
v -1.700000 0.400000 -1.200000
v -1.600000 0.200000 -1.200000
v -1.600000 0.300000 -1.200000
v -1.100000 0.200000 -1.200000
v -1.100000 0.300000 -1.200000
v -1.000000 0.200000 -1.200000
v -1.000000 0.300000 -1.200000
v -0.800000 0.100000 -1.200000
v -0.800000 0.200000 -1.200000
v -0.700000 0.100000 -1.200000
v -0.700000 0.200000 -1.200000
v 0.100000 0.100000 -1.200000
v 0.100000 0.300000 -1.200000
v 0.400000 0.100000 -1.200000
v 0.400000 0.300000 -1.200000
v 1.600000 0.100000 -1.200000
v 1.600000 0.200000 -1.200000
v 1.700000 -0.000000 -1.200000
v 1.700000 0.100000 -1.200000
v 1.700000 0.200000 -1.200000
v 1.700000 0.300000 -1.200000
v 1.800000 0.100000 -1.200000
v 1.800000 0.200000 -1.200000
v 1.900000 0.200000 -1.200000
v 1.900000 0.300000 -1.200000
v 2.000000 0.300000 -1.200000
v 2.000000 0.400000 -1.200000
v -2.000000 0.000000 0.600000
v 1.700000 0.000000 0.600000
v -1.900000 0.000000 0.500000
v 1.600000 0.000000 0.500000
v -1.900000 -0.000000 -1.100000
v 1.600000 -0.000000 -1.100000
v -2.000000 -0.000000 -1.200000
v 1.700000 -0.000000 -1.200000
v 1.700000 0.100000 0.600000
v 1.800000 0.100000 0.600000
v 1.700000 0.100000 0.500000
v 1.800000 0.100000 0.500000
v 1.700000 0.100000 -1.100000
v 1.800000 0.100000 -1.100000
v 1.700000 0.100000 -1.200000
v 1.800000 0.100000 -1.200000
v 1.800000 0.200000 0.600000
v 1.900000 0.200000 0.600000
v 0.800000 0.200000 0.500000
v 1.600000 0.200000 0.500000
v 1.800000 0.200000 0.500000
v 1.900000 0.200000 0.500000
v 0.800000 0.200000 -1.000000
v 1.500000 0.200000 -1.000000
v 1.500000 0.200000 -1.100000
v 1.600000 0.200000 -1.100000
v 1.800000 0.200000 -1.100000
v 1.900000 0.200000 -1.100000
v 1.800000 0.200000 -1.200000
v 1.900000 0.200000 -1.200000
v 1.900000 0.300000 0.600000
v 2.000000 0.300000 0.600000
v -1.700000 0.300000 0.500000
v -1.600000 0.300000 0.500000
v -1.500000 0.300000 0.500000
v 1.900000 0.300000 0.500000
v -1.700000 0.300000 -0.100000
v -1.700000 0.300000 -0.200000
v -1.700000 0.300000 -0.400000
v -1.700000 0.300000 -0.500000
v -1.700000 0.300000 -1.100000
v -1.600000 0.300000 -1.100000
v -1.500000 0.300000 -1.100000
v 1.900000 0.300000 -1.100000
v 1.900000 0.300000 -1.200000
v 2.000000 0.300000 -1.200000
v -2.000000 0.100000 0.600000
v -1.900000 0.100000 0.600000
v -1.900000 0.100000 0.500000
v -1.700000 0.100000 0.500000
v -1.500000 0.100000 0.500000
v 0.800000 0.100000 0.500000
v 1.600000 0.100000 0.500000
v -1.900000 0.100000 0.400000
v -1.900000 0.100000 0.200000
v 0.800000 0.100000 -1.000000
v 1.500000 0.100000 -1.000000
v -1.900000 0.100000 -1.100000
v -1.700000 0.100000 -1.100000
v -1.500000 0.100000 -1.100000
v 1.500000 0.100000 -1.100000
v 1.600000 0.100000 -1.100000
v -2.000000 0.100000 -1.200000
v -1.900000 0.100000 -1.200000
v -1.900000 0.200000 0.600000
v -1.800000 0.200000 0.600000
v -1.900000 0.200000 0.500000
v -1.800000 0.200000 0.500000
v -1.900000 0.200000 0.400000
v -1.800000 0.200000 0.400000
v -1.900000 0.200000 0.200000
v -1.800000 0.200000 0.200000
v -1.800000 0.200000 -0.100000
v -1.800000 0.200000 -0.200000
v -1.800000 0.200000 -0.400000
v -1.800000 0.200000 -0.500000
v -1.900000 0.200000 -1.100000
v -1.800000 0.200000 -1.100000
v -1.900000 0.200000 -1.200000
v -1.800000 0.200000 -1.200000
v -1.800000 0.300000 0.600000
v -1.700000 0.300000 0.600000
v -1.800000 0.300000 0.500000
v -1.700000 0.300000 0.500000
v -1.800000 0.300000 -0.100000
v -1.700000 0.300000 -0.100000
v -1.800000 0.300000 -0.200000
v -1.700000 0.300000 -0.200000
v -1.800000 0.300000 -0.400000
v -1.700000 0.300000 -0.400000
v -1.800000 0.300000 -0.500000
v -1.700000 0.300000 -0.500000
v -1.800000 0.300000 -1.100000
v -1.700000 0.300000 -1.100000
v -1.800000 0.300000 -1.200000
v -1.700000 0.300000 -1.200000
v -1.700000 0.400000 0.600000
v 2.000000 0.400000 0.600000
v -1.600000 0.400000 0.500000
v 1.900000 0.400000 0.500000
v 1.500000 0.400000 0.200000
v 1.700000 0.400000 0.200000
v -0.800000 0.400000 -0.000000
v -0.500000 0.400000 -0.000000
v -1.300000 0.400000 -0.100000
v -1.200000 0.400000 -0.100000
v -0.800000 0.400000 -0.100000
v -0.500000 0.400000 -0.100000
v -0.400000 0.400000 -0.100000
v -0.400000 0.400000 -0.200000
v -0.200000 0.400000 -0.200000
v 0.500000 0.400000 -0.300000
v 1.000000 0.400000 -0.300000
v 1.500000 0.400000 -0.300000
v 1.700000 0.400000 -0.300000
v -0.500000 0.400000 -0.400000
v -0.200000 0.400000 -0.400000
v 0.500000 0.400000 -0.400000
v 1.000000 0.400000 -0.400000
v 1.500000 0.400000 -0.400000
v 1.800000 0.400000 -0.400000
v -1.400000 0.400000 -0.500000
v -1.300000 0.400000 -0.500000
v -1.200000 0.400000 -0.500000
v -1.000000 0.400000 -0.500000
v 1.500000 0.400000 -0.600000
v 1.800000 0.400000 -0.600000
v -1.400000 0.400000 -0.700000
v -1.000000 0.400000 -0.700000
v -1.600000 0.400000 -1.100000
v 1.900000 0.400000 -1.100000
v -1.700000 0.400000 -1.200000
v 2.000000 0.400000 -1.200000
vn -1.0000 -0.0000 -0.0000
vn 1.0000 -0.0000 -0.0000
vn -0.0000 -0.0000 1.0000
vn -0.0000 -0.0000 -1.0000
vn -0.0000 -1.0000 -0.0000
vn -0.0000 1.0000 -0.0000
vt 0.994141 0.500000
vt 0.751953 0.500000
vt 0.931641 0.500000
vt 0.888672 0.500000
s 0
usemtl Blue
f 12/2/1 7/2/1 6/2/1
f 13/3/1 8/3/1 7/3/1
f 13/2/1 7/2/1 12/2/1
f 14/2/1 9/2/1 8/2/1
f 14/3/1 8/3/1 13/3/1
f 15/2/1 9/2/1 14/2/1
f 28/2/1 19/2/1 18/2/1
f 28/2/1 20/2/1 19/2/1
f 28/2/1 21/2/1 20/2/1
f 29/3/1 22/3/1 21/3/1
f 29/2/1 21/2/1 28/2/1
f 30/2/1 23/2/1 22/2/1
f 30/3/1 22/3/1 29/3/1
f 31/3/1 24/3/1 23/3/1
f 31/2/1 23/2/1 30/2/1
f 32/2/1 25/2/1 24/2/1
f 32/3/1 24/3/1 31/3/1
f 33/2/1 25/2/1 32/2/1
f 47/4/1 46/4/1 45/4/1
f 48/4/1 46/4/1 47/4/1
f 51/4/1 50/4/1 49/4/1
f 52/4/1 50/4/1 51/4/1
f 53/2/2 54/2/2 55/2/2
f 55/2/2 54/2/2 56/2/2
f 56/2/2 54/2/2 57/2/2
f 57/2/2 54/2/2 58/2/2
f 58/2/2 54/2/2 59/2/2
f 59/2/2 54/2/2 60/2/2
f 55/2/2 56/2/2 61/2/2
f 56/3/2 57/3/2 62/3/2
f 61/2/2 56/2/2 62/2/2
f 57/2/2 58/2/2 63/2/2
f 62/3/2 57/3/2 63/3/2
f 58/3/2 59/3/2 64/3/2
f 63/2/2 58/2/2 64/2/2
f 59/2/2 60/2/2 65/2/2
f 64/3/2 59/3/2 65/3/2
f 65/2/2 60/2/2 66/2/2
f 67/4/2 68/4/2 69/4/2
f 69/4/2 68/4/2 70/4/2
f 71/4/2 72/4/2 73/4/2
f 73/4/2 72/4/2 74/4/2
f 82/2/2 83/2/2 86/2/2
f 86/2/2 83/2/2 87/2/2
f 90/2/2 91/2/2 94/2/2
f 94/2/2 91/2/2 95/2/2
f 111/2/3 108/2/3 107/2/3
f 113/2/3 111/2/3 107/2/3
f 113/2/3 112/2/3 111/2/3
f 114/2/3 112/2/3 113/2/3
f 116/2/3 112/2/3 114/2/3
f 117/2/3 116/2/3 115/2/3
f 117/2/3 112/2/3 116/2/3
f 118/2/3 112/2/3 117/2/3
f 119/2/3 117/2/3 115/2/3
f 121/2/3 119/2/3 115/2/3
f 121/2/3 120/2/3 119/2/3
f 122/2/3 120/2/3 121/2/3
f 125/2/3 120/2/3 122/2/3
f 126/2/3 120/2/3 125/2/3
f 135/4/3 134/4/3 133/4/3
f 136/4/3 134/4/3 135/4/3
f 140/2/3 138/2/3 137/2/3
f 140/1/3 139/1/3 138/1/3
f 141/1/3 139/1/3 140/1/3
f 142/2/3 140/2/3 137/2/3
f 142/2/3 141/2/3 140/2/3
f 143/2/3 141/2/3 142/2/3
f 146/2/3 145/2/3 144/2/3
f 147/2/3 145/2/3 146/2/3
f 148/2/4 149/2/4 151/2/4
f 149/1/4 150/1/4 151/1/4
f 151/1/4 150/1/4 152/1/4
f 148/2/4 151/2/4 153/2/4
f 151/2/4 152/2/4 153/2/4
f 153/2/4 152/2/4 154/2/4
f 155/2/4 156/2/4 157/2/4
f 157/2/4 156/2/4 158/2/4
f 165/2/4 166/2/4 169/2/4
f 165/2/4 169/2/4 171/2/4
f 169/2/4 170/2/4 171/2/4
f 171/2/4 170/2/4 172/2/4
f 165/2/4 171/2/4 173/2/4
f 165/2/4 173/2/4 175/2/4
f 173/2/4 174/2/4 175/2/4
f 175/2/4 174/2/4 176/2/4
f 159/1/4 175/1/4 177/1/4
f 176/2/4 174/2/4 178/2/4
f 177/2/4 178/2/4 179/2/4
f 179/2/4 178/2/4 180/2/4
f 178/2/4 174/2/4 180/2/4
f 181/2/4 182/2/4 183/2/4
f 183/2/4 182/2/4 184/2/4
f 184/2/4 182/2/4 187/2/4
f 187/2/4 182/2/4 188/2/4
f 192/1/4 168/1/4 193/1/4
f 199/2/5 198/2/5 197/2/5
f 200/2/5 198/2/5 199/2/5
f 205/1/5 204/1/5 203/1/5
f 206/1/5 204/1/5 205/1/5
f 207/2/5 206/2/5 205/2/5
f 208/2/5 206/2/5 207/2/5
f 217/4/5 214/4/5 213/4/5
f 218/4/5 214/4/5 217/4/5
f 219/4/5 214/4/5 218/4/5
f 220/4/5 214/4/5 219/4/5
f 221/2/5 216/2/5 215/2/5
f 222/2/5 216/2/5 221/2/5
f 231/1/5 228/1/5 227/1/5
f 232/1/5 228/1/5 231/1/5
f 233/1/5 228/1/5 232/1/5
f 234/1/5 228/1/5 233/1/5
f 235/1/5 228/1/5 234/1/5
f 236/2/5 229/2/5 228/2/5
f 236/1/5 228/1/5 235/1/5
f 237/2/5 229/2/5 236/2/5
f 239/1/5 226/1/5 238/1/5
f 246/2/6 247/2/6 250/2/6
f 250/2/6 247/2/6 251/2/6
f 244/2/6 245/2/6 253/2/6
f 253/2/6 245/2/6 254/2/6
f 251/2/6 247/2/6 255/2/6
f 255/2/6 247/2/6 256/2/6
f 261/2/6 262/2/6 263/2/6
f 263/2/6 262/2/6 264/2/6
f 263/3/6 264/3/6 265/3/6
f 265/3/6 264/3/6 266/3/6
f 265/2/6 266/2/6 267/2/6
f 265/2/6 267/2/6 268/2/6
f 265/2/6 268/2/6 269/2/6
f 265/2/6 269/2/6 270/2/6
f 265/2/6 270/2/6 271/2/6
f 271/2/6 270/2/6 272/2/6
f 277/2/6 278/2/6 279/2/6
f 279/2/6 278/2/6 280/2/6
f 279/3/6 280/3/6 281/3/6
f 281/3/6 280/3/6 282/3/6
f 281/2/6 282/2/6 283/2/6
f 283/2/6 282/2/6 284/2/6
f 283/3/6 284/3/6 285/3/6
f 285/3/6 284/3/6 286/3/6
f 285/2/6 286/2/6 287/2/6
f 287/2/6 286/2/6 288/2/6
f 293/2/6 294/2/6 295/2/6
f 295/2/6 294/2/6 296/2/6
f 293/2/6 295/2/6 297/2/6
f 297/2/6 295/2/6 298/2/6
f 293/2/6 297/2/6 299/2/6
f 299/2/6 297/2/6 300/2/6
f 300/2/6 297/2/6 301/2/6
f 298/2/6 295/2/6 302/2/6
f 302/2/6 295/2/6 303/2/6
f 302/3/6 303/3/6 304/3/6
f 303/2/6 295/2/6 304/2/6
f 304/2/6 295/2/6 305/2/6
f 305/2/6 295/2/6 306/2/6
f 306/2/6 295/2/6 307/2/6
f 307/2/6 295/2/6 308/2/6
f 296/2/6 294/2/6 309/2/6
f 300/2/6 301/2/6 310/2/6
f 301/2/6 302/2/6 310/2/6
f 302/3/6 304/3/6 310/3/6
f 304/3/6 305/3/6 310/3/6
f 305/2/6 306/2/6 311/2/6
f 310/3/6 305/3/6 311/3/6
f 311/2/6 306/2/6 312/2/6
f 307/2/6 308/2/6 313/2/6
f 308/2/6 309/2/6 313/2/6
f 313/2/6 309/2/6 314/2/6
f 309/2/6 294/2/6 315/2/6
f 314/2/6 309/2/6 315/2/6
f 293/2/6 299/2/6 316/2/6
f 316/2/6 299/2/6 317/2/6
f 311/2/6 312/2/6 318/2/6
f 310/2/6 311/2/6 318/2/6
f 313/2/6 314/2/6 318/2/6
f 312/2/6 313/2/6 318/2/6
f 300/2/6 310/2/6 318/2/6
f 318/2/6 314/2/6 319/2/6
f 319/2/6 314/2/6 320/2/6
f 315/2/6 294/2/6 321/2/6
f 293/2/6 316/2/6 322/2/6
f 320/2/6 321/2/6 323/2/6
f 319/2/6 320/2/6 323/2/6
f 293/2/6 322/2/6 324/2/6
f 322/2/6 323/2/6 324/2/6
f 323/2/6 321/2/6 325/2/6
f 324/2/6 323/2/6 325/2/6
f 321/2/6 294/2/6 325/2/6
usemtl White
f 115/3/3 114/3/3 113/3/3
f 116/3/3 114/3/3 115/3/3
f 119/3/3 118/3/3 117/3/3
f 120/3/3 118/3/3 119/3/3
f 171/3/4 172/3/4 173/3/4
f 173/3/4 172/3/4 174/3/4
f 175/3/4 176/3/4 177/3/4
f 177/3/4 176/3/4 178/3/4
f 179/3/4 180/3/4 181/3/4
f 181/3/4 180/3/4 182/3/4
f 297/3/6 298/3/6 301/3/6
f 301/3/6 298/3/6 302/3/6
f 295/3/6 296/3/6 308/3/6
f 308/3/6 296/3/6 309/3/6
f 306/3/6 307/3/6 312/3/6
f 312/3/6 307/3/6 313/3/6
f 299/3/6 300/3/6 317/3/6
f 317/3/6 300/3/6 318/3/6
f 314/3/6 315/3/6 320/3/6
f 320/3/6 315/3/6 321/3/6
f 316/3/6 317/3/6 322/3/6
f 318/3/6 319/3/6 322/3/6
f 317/3/6 318/3/6 322/3/6
f 322/3/6 319/3/6 323/3/6
usemtl Black
f 3/1/1 2/1/1 1/1/1
f 4/1/1 2/1/1 3/1/1
f 11/1/1 6/1/1 5/1/1
f 12/1/1 6/1/1 11/1/1
f 15/1/1 10/1/1 9/1/1
f 16/1/1 10/1/1 15/1/1
f 27/1/1 18/1/1 17/1/1
f 28/1/1 18/1/1 27/1/1
f 33/1/1 26/1/1 25/1/1
f 34/1/1 26/1/1 33/1/1
f 43/1/1 36/1/1 35/1/1
f 43/1/1 42/1/1 41/1/1
f 43/1/1 41/1/1 40/1/1
f 43/1/1 40/1/1 39/1/1
f 43/1/1 39/1/1 38/1/1
f 43/1/1 38/1/1 37/1/1
f 43/1/1 37/1/1 36/1/1
f 44/1/1 42/1/1 43/1/1
f 75/1/2 76/1/2 77/1/2
f 77/1/2 76/1/2 78/1/2
f 78/1/2 76/1/2 79/1/2
f 79/1/2 76/1/2 80/1/2
f 81/1/2 82/1/2 85/1/2
f 85/1/2 82/1/2 86/1/2
f 83/1/2 84/1/2 87/1/2
f 87/1/2 84/1/2 88/1/2
f 89/1/2 90/1/2 93/1/2
f 93/1/2 90/1/2 94/1/2
f 91/1/2 92/1/2 95/1/2
f 95/1/2 92/1/2 96/1/2
f 97/1/2 98/1/2 99/1/2
f 99/1/2 98/1/2 100/1/2
f 103/1/3 102/1/3 101/1/3
f 105/1/3 104/1/3 103/1/3
f 107/1/3 103/1/3 101/1/3
f 107/1/3 106/1/3 105/1/3
f 107/1/3 105/1/3 103/1/3
f 108/1/3 106/1/3 107/1/3
f 109/1/3 106/1/3 108/1/3
f 111/1/3 110/1/3 109/1/3
f 111/1/3 109/1/3 108/1/3
f 112/1/3 110/1/3 111/1/3
f 113/1/3 107/1/3 101/1/3
f 115/1/3 113/1/3 101/1/3
f 118/1/3 110/1/3 112/1/3
f 120/1/3 110/1/3 118/1/3
f 121/1/3 115/1/3 101/1/3
f 123/1/3 121/1/3 101/1/3
f 123/1/3 122/1/3 121/1/3
f 124/1/3 122/1/3 123/1/3
f 125/1/3 122/1/3 124/1/3
f 126/1/3 110/1/3 120/1/3
f 127/1/3 125/1/3 124/1/3
f 127/1/3 126/1/3 125/1/3
f 128/1/3 126/1/3 127/1/3
f 129/1/3 126/1/3 128/1/3
f 130/1/3 110/1/3 126/1/3
f 130/1/3 126/1/3 129/1/3
f 131/1/3 110/1/3 130/1/3
f 132/1/3 110/1/3 131/1/3
f 159/1/4 160/1/4 161/1/4
f 161/1/4 162/1/4 163/1/4
f 159/1/4 161/1/4 165/1/4
f 163/1/4 164/1/4 165/1/4
f 161/1/4 163/1/4 165/1/4
f 165/1/4 164/1/4 166/1/4
f 166/1/4 164/1/4 167/1/4
f 167/1/4 168/1/4 169/1/4
f 166/1/4 167/1/4 169/1/4
f 169/1/4 168/1/4 170/1/4
f 170/1/4 168/1/4 172/1/4
f 172/1/4 168/1/4 174/1/4
f 159/1/4 165/1/4 175/1/4
f 159/1/4 177/1/4 179/1/4
f 174/1/4 168/1/4 180/1/4
f 159/1/4 179/1/4 181/1/4
f 180/1/4 168/1/4 182/1/4
f 159/1/4 181/1/4 183/1/4
f 159/1/4 183/1/4 185/1/4
f 183/1/4 184/1/4 185/1/4
f 185/1/4 184/1/4 186/1/4
f 186/1/4 184/1/4 187/1/4
f 182/1/4 168/1/4 188/1/4
f 186/1/4 187/1/4 189/1/4
f 187/1/4 188/1/4 189/1/4
f 189/1/4 188/1/4 190/1/4
f 190/1/4 188/1/4 191/1/4
f 188/1/4 168/1/4 192/1/4
f 191/1/4 188/1/4 192/1/4
f 193/1/4 168/1/4 194/1/4
f 197/1/5 196/1/5 195/1/5
f 198/1/5 196/1/5 197/1/5
f 199/1/5 197/1/5 195/1/5
f 200/1/5 196/1/5 198/1/5
f 201/1/5 199/1/5 195/1/5
f 201/1/5 200/1/5 199/1/5
f 202/1/5 196/1/5 200/1/5
f 202/1/5 200/1/5 201/1/5
f 209/1/5 208/1/5 207/1/5
f 210/1/5 208/1/5 209/1/5
f 215/1/5 212/1/5 211/1/5
f 216/1/5 212/1/5 215/1/5
f 223/1/5 222/1/5 221/1/5
f 224/1/5 222/1/5 223/1/5
f 230/1/5 226/1/5 225/1/5
f 238/1/5 226/1/5 230/1/5
f 240/1/5 226/1/5 239/1/5
f 241/1/6 242/1/6 243/1/6
f 241/1/6 243/1/6 248/1/6
f 241/1/6 248/1/6 249/1/6
f 241/1/6 249/1/6 252/1/6
f 241/1/6 252/1/6 257/1/6
f 257/1/6 252/1/6 258/1/6
f 259/1/6 260/1/6 261/1/6
f 261/1/6 260/1/6 262/1/6
f 271/1/6 272/1/6 273/1/6
f 273/1/6 272/1/6 274/1/6
f 275/1/6 276/1/6 277/1/6
f 277/1/6 276/1/6 278/1/6
f 287/1/6 288/1/6 289/1/6
f 289/1/6 288/1/6 290/1/6
f 291/1/6 292/1/6 293/1/6
f 293/1/6 292/1/6 294/1/6
f 291/1/6 293/1/6 324/1/6
f 294/1/6 292/1/6 325/1/6
f 291/1/6 324/1/6 326/1/6
f 324/1/6 325/1/6 326/1/6
f 325/1/6 292/1/6 327/1/6
f 326/1/6 325/1/6 327/1/6
